<svg width="40" height="40" viewBox="0 0 40 40" fill="none" xmlns="http://www.w3.org/2000/svg">
<path d="M39.9997 5.61743V26.7969C39.9997 26.7969 40.072 30.077 37.358 33.191C34.6448 36.3059 31.0812 36.6833 30.1377 36.6833H26.0793L26.5931 13.123C26.5931 13.123 26.6608 9.58102 29.6186 6.62232C32.4382 3.80267 36.0362 4.00311 36.0362 4.00311H38.4432C38.4432 4.00311 39.9997 3.85594 39.9997 5.61653V5.61743Z" fill="url(#paint0_linear_431_154)"/>
<path d="M13.154 22.3349L13.2722 36.6833H1.41217C1.41217 36.6833 8.79822e-05 36.6507 8.79822e-05 35.5474V31.2444C8.79822e-05 31.2444 -0.0522783 28.0762 2.3981 25.4155C4.84848 22.7547 7.77197 22.4044 8.68206 22.4044C9.59215 22.4044 13.154 22.334 13.154 22.334V22.3349Z" fill="url(#paint1_linear_431_154)"/>
<path d="M26.6518 36.683H12.6132L13.154 22.3346C13.154 22.3346 12.9878 18.9191 16.1434 15.8827C18.3084 13.7998 20.3182 13.2734 22.0734 13.2734H26.5895L26.6518 36.6839V36.683Z" fill="url(#paint2_linear_431_154)"/>
<path opacity="0.61" d="M26.0677 36.6838H26.6518L26.5895 13.2725L26.0668 36.6838H26.0677Z" fill="#B70D31"/>
<path opacity="0.59" d="M13.154 22.1582L12.5996 36.6835H13.2587L13.154 22.1582Z" fill="#C94F28"/>
<defs>
<linearGradient id="paint0_linear_431_154" x1="31.9687" y1="2.17661" x2="33.8467" y2="35.3732" gradientUnits="userSpaceOnUse">
<stop offset="0.02" stop-color="#A85585"/>
<stop offset="0.42" stop-color="#B74A6F"/>
<stop offset="0.57" stop-color="#BF4868"/>
<stop offset="0.82" stop-color="#D74455"/>
<stop offset="0.91" stop-color="#E1434D"/>
</linearGradient>
<linearGradient id="paint1_linear_431_154" x1="10.3858" y1="23.6829" x2="-1.31449" y2="53.6093" gradientUnits="userSpaceOnUse">
<stop stop-color="#FFE165"/>
<stop offset="0.02" stop-color="#FFDD55"/>
<stop offset="0.13" stop-color="#FFC907"/>
<stop offset="0.14" stop-color="#FDC40B"/>
<stop offset="0.26" stop-color="#F69E30"/>
<stop offset="0.32" stop-color="#F3903F"/>
<stop offset="0.47" stop-color="#ED6949"/>
</linearGradient>
<linearGradient id="paint2_linear_431_154" x1="17.4119" y1="-0.877197" x2="22.217" y2="38.9699" gradientUnits="userSpaceOnUse">
<stop offset="0.02" stop-color="#CF5C6C"/>
<stop offset="0.1" stop-color="#D95F68"/>
<stop offset="0.27" stop-color="#EB6561"/>
<stop offset="0.4" stop-color="#F2685F"/>
<stop offset="0.65" stop-color="#F0774F"/>
<stop offset="0.96" stop-color="#F08541"/>
</linearGradient>
</defs>
</svg>
