<svg width="40" height="40" viewBox="0 0 40 40" fill="none" xmlns="http://www.w3.org/2000/svg">
<path fill-rule="evenodd" clip-rule="evenodd" d="M11.4173 0L28.5827 0C32.5527 0 33.9924 0.413364 35.4438 1.18958C36.8952 1.96579 38.0342 3.10485 38.8104 4.55623C39.5866 6.00762 40 7.44726 40 11.4173V28.5827C40 32.5527 39.5866 33.9924 38.8104 35.4438C38.0342 36.8952 36.8952 38.0342 35.4438 38.8104C33.9924 39.5866 32.5527 40 28.5827 40H11.4173C7.44726 40 6.00762 39.5866 4.55623 38.8104C3.10485 38.0342 1.96579 36.8952 1.18958 35.4438C0.413364 33.9924 0 32.5527 0 28.5827L0 11.4173C0 7.44726 0.413364 6.00762 1.18958 4.55623C1.96579 3.10485 3.10485 1.96579 4.55623 1.18958C6.00762 0.413364 7.44726 0 11.4173 0Z" fill="#0C73FE"/>
<path d="M16.6765 21.5C16.3029 21.5 16 21.8029 16 22.1765V22.5243L16.0008 22.5411C16.0712 23.949 17.1334 25.359 18.9408 25.498L18.9667 25.5H19.3235C19.6971 25.5 20 25.1971 20 24.8235C20 24.4499 19.6971 24.1471 19.3235 24.1471H19.0203C17.9815 24.0559 17.3993 23.2751 17.3529 22.4891V22.1765C17.3529 21.8029 17.0501 21.5 16.6765 21.5Z" fill="white"/>
<path fill-rule="evenodd" clip-rule="evenodd" d="M18.5316 10.5693C15.0352 10.7232 12.3321 13.5933 12.1566 17.0888C12.0686 18.842 12 20.4095 12 21.8667C12 23.2258 12.0597 24.5866 12.1392 26.1507C12.3159 29.6287 15.0144 32.473 18.4935 32.629C19.0204 32.6526 19.531 32.6667 20 32.6667C20.4836 32.6667 21.0115 32.6517 21.5559 32.6267C25.0124 32.4682 27.7008 29.6574 27.8713 26.2015C27.9454 24.697 28 23.3525 28 21.8667C28 20.2071 27.9393 18.6762 27.8589 17.0226C27.6903 13.556 24.9998 10.7296 21.5328 10.5722C20.9966 10.5479 20.4767 10.5333 20 10.5333C19.5423 10.5333 19.045 10.5467 18.5316 10.5693ZM14.101 17.4896C14.2336 14.8254 16.2566 12.6493 18.8623 12.5293C19.2602 12.5109 19.646 12.5 20 12.5C20.3717 12.5 20.7783 12.512 21.1972 12.5321C23.7757 12.6552 25.7854 14.7905 25.9101 17.4273C25.922 17.6786 25.9332 17.8929 25.9433 18.087C25.9776 18.7452 26 19.1765 26 20.0706C26 20.9526 25.9755 21.4546 25.9386 22.2095C25.9327 22.3308 25.9265 22.4588 25.9199 22.5958C25.7951 25.2225 23.7875 27.3426 21.219 27.4669C20.7923 27.4875 20.3781 27.5 20 27.5C19.6356 27.5 19.2376 27.4884 18.8273 27.4691C16.2376 27.3472 14.2189 25.1953 14.0873 22.5474C14.0787 22.3745 14.0705 22.2162 14.0629 22.068L14.0628 22.0669C14.0251 21.338 14 20.8517 14 20.0706C14 19.3204 14.0232 18.9084 14.0584 18.2828C14.0712 18.0555 14.0856 17.7998 14.101 17.4896Z" fill="white"/>
<path fill-rule="evenodd" clip-rule="evenodd" d="M11.4173 2.5H28.5827C32.3502 2.5 33.3239 2.89092 34.2648 3.39411C35.2805 3.93732 36.0627 4.71951 36.6059 5.73523C37.1091 6.67611 37.5 7.64981 37.5 11.4173V12.0107C37.5 12.2835 37.2813 12.5056 37.0087 12.5172C36.9248 12.5207 36.84 12.5248 36.7545 12.5293C34.4745 12.6493 32.7044 14.8254 32.5884 17.4896C32.575 17.7978 32.5624 18.0525 32.5513 18.2787L32.5512 18.2815L32.5511 18.2828C32.5203 18.9084 32.5 19.3204 32.5 20.0706C32.5 20.8517 32.522 21.3382 32.555 22.0671C32.5617 22.2156 32.5689 22.3742 32.5764 22.5474C32.6916 25.1953 34.4579 27.3472 36.7239 27.4691C36.8197 27.4743 36.9148 27.4789 37.0087 27.4828C37.2813 27.4944 37.5 27.7165 37.5 27.9893V28.5827C37.5 32.3502 37.1091 33.3239 36.6059 34.2648C36.0627 35.2805 35.2805 36.0627 34.2648 36.6059C33.3239 37.1091 32.3502 37.5 28.5827 37.5H11.4173C7.64981 37.5 6.67611 37.1091 5.73523 36.6059C4.71951 36.0627 3.93732 35.2805 3.39411 34.2648C2.89092 33.3239 2.5 32.3502 2.5 28.5827V27.9893C2.5 27.7165 2.71873 27.4944 2.9913 27.4828C3.09846 27.4783 3.20708 27.4729 3.31663 27.4669C5.56405 27.3426 7.32071 25.2225 7.42995 22.5958C7.43556 22.461 7.44094 22.335 7.44605 22.2154L7.44631 22.2094C7.47856 21.4544 7.5 20.9527 7.5 20.0706C7.5 19.1765 7.48034 18.7448 7.45036 18.0866C7.44151 17.8925 7.43177 17.6786 7.42137 17.4273C7.31223 14.7905 5.55375 12.6552 3.29759 12.5321C3.19449 12.5264 3.09225 12.5214 2.99131 12.5172C2.71873 12.5056 2.5 12.2835 2.5 12.0107V11.4173C2.5 7.64981 2.89092 6.67611 3.39411 5.73523C3.93732 4.71951 4.71951 3.93732 5.73523 3.39411C6.67611 2.89092 7.64981 2.5 11.4173 2.5ZM18.4555 8.8376C14.0041 9.03354 10.6428 12.6763 10.4256 17.0018C10.3375 18.7549 10.2667 20.3614 10.2667 21.8666C10.2667 23.2734 10.3286 24.6723 10.4081 26.2386C10.6274 30.5531 13.99 34.1621 18.416 34.3605C18.9607 34.3849 19.4983 34.3999 20.0001 34.3999C20.5175 34.3999 21.0731 34.384 21.6354 34.3582C26.0292 34.1566 29.3904 30.5898 29.6026 26.2868C29.6772 24.7742 29.7334 23.3958 29.7334 21.8666C29.7334 20.1646 29.6711 18.6005 29.5902 16.9383C29.3806 12.6284 26.0209 9.04072 21.6114 8.84059C21.0573 8.81544 20.5102 8.79993 20.0001 8.79993C19.5103 8.79993 18.9865 8.81422 18.4555 8.8376Z" fill="white"/>
</svg>
