<svg width="40" height="40" viewBox="0 0 40 40" fill="none" xmlns="http://www.w3.org/2000/svg">
<path fill-rule="evenodd" clip-rule="evenodd" d="M40 7.67981C40 3.4412 36.633 0 32.4876 0H7.51234C3.36702 0 0 3.4412 0 7.67981V32.3199C0 36.5574 3.36702 39.9996 7.51236 39.9996H32.4876C36.633 39.9996 40 36.5574 40 32.3199V7.67981Z" fill="#0C3B7C"/>
<path fill-rule="evenodd" clip-rule="evenodd" d="M0.000976562 24.8496H19.9785V39.9995H0.000991204L0.000976562 24.8496Z" fill="#0C3B7C"/>
<path d="M18.1795 26.4758L14.9579 26.4726V22.5337C14.9579 21.6921 15.2771 21.2541 15.9815 21.154H18.1795C19.747 21.154 20.761 22.1646 20.761 23.8002C20.761 25.4801 19.7727 26.4742 18.1795 26.4758ZM14.9579 15.8518V14.8149C14.9579 13.9077 15.3332 13.4763 16.1564 13.4204H17.8056C19.2191 13.4204 20.0664 14.2851 20.0664 15.7337C20.0664 16.8361 19.4855 18.1239 17.857 18.1239H14.9579V15.8518ZM22.2932 19.7824L21.7109 19.4478L22.2195 19.0032C22.8115 18.4832 23.803 17.3134 23.803 15.2956C23.803 12.2049 21.459 10.2116 17.8314 10.2116H13.692V10.21H13.2202C12.1453 10.251 11.2837 11.1451 11.2725 12.2508V29.7881H17.9131C21.9451 29.7881 24.5475 27.5438 24.5475 24.0676C24.5475 22.1957 23.7067 20.5962 22.2932 19.7824Z" fill="white"/>
<path d="M26.2764 27.3659C26.2764 26.0261 27.3331 24.9424 28.6352 24.9424C29.9405 24.9424 31.0021 26.0261 31.0021 27.3659C31.0021 28.7039 29.9405 29.7894 28.6351 29.7894C27.3331 29.7894 26.2764 28.7039 26.2764 27.3659Z" fill="#00BAFC"/>
</svg>
