<svg width="40" height="41" viewBox="0 0 40 41" fill="none" xmlns="http://www.w3.org/2000/svg">
<path fill-rule="evenodd" clip-rule="evenodd" d="M25.5677 20.6104C21.6342 16.2667 16.833 10.3799 10.3543 10.3799C4.62764 10.3799 0 14.9522 0 20.6104C0 26.2686 4.62764 30.8409 10.3543 30.8409C16.7752 30.8409 21.6921 25.0112 25.5677 20.6104ZM10.47 14.8379C13.7094 14.8379 16.3124 17.4098 16.3124 20.6104C16.3124 23.811 13.7094 26.3829 10.47 26.3829C7.23069 26.3829 4.5698 23.811 4.5698 20.6104C4.5698 17.4098 7.23069 14.8379 10.47 14.8379Z" fill="#FFAF0D"/>
<path fill-rule="evenodd" clip-rule="evenodd" d="M25.857 24.8398C24.8158 25.9257 23.7167 27.0116 22.5598 28.0404C24.4687 29.8122 27.0139 30.7838 29.6169 30.7838C35.3437 30.7838 39.9713 26.2115 39.9713 20.5532C39.9713 14.9522 35.3437 10.3799 29.6169 10.3799C26.9561 10.3799 24.4687 11.3515 22.502 13.1804C23.601 14.2663 24.7001 15.3523 25.7413 16.4382C26.8404 15.4666 28.2287 14.9522 29.6748 14.9522C32.8563 14.9522 35.4015 17.5241 35.4015 20.6104C35.4015 23.6967 32.7985 26.2686 29.6748 26.2686C28.2287 26.2686 26.8982 25.7542 25.857 24.8398Z" fill="#0044AF"/>
</svg>
