<svg width="40" height="41" viewBox="0 0 40 41" fill="none" xmlns="http://www.w3.org/2000/svg">
<path d="M4.1709 11.1103C4.1709 10.2278 4.65628 9.7865 5.50202 9.7865H19.8208C20.7107 9.7865 21.1593 10.2278 21.1593 11.1103V12.2134C21.1593 13.0959 20.718 13.5813 19.8208 13.5813H8.23046V23.0463H17.3718C18.2543 23.0463 18.703 23.4875 18.7103 24.37V25.4732C18.7103 26.3557 18.2617 26.8411 17.3718 26.8411H8.23046V36.8429H19.8208C20.718 36.8429 21.1593 37.3209 21.1593 38.2034V39.3066C21.1593 40.1891 20.718 40.6303 19.8208 40.6303H5.50938C4.66364 40.6303 4.1709 40.1891 4.1709 39.3066V11.1103ZM30.0143 0.637784C28.9028 0.64508 27.8181 0.98021 26.8961 1.60119C25.9749 2.21935 25.2581 3.09736 24.8369 4.12371C24.5243 4.88912 24.3859 5.71448 24.4317 6.53999C24.4775 7.3655 24.7064 8.17049 25.1017 8.89663C25.4979 9.62395 26.0505 10.2544 26.7196 10.7426C27.503 11.3149 28.4204 11.6763 29.3836 11.7922C30.3469 11.9081 31.3238 11.7746 32.2206 11.4044C33.2438 10.9812 34.1189 10.2648 34.7358 9.34524C35.3556 8.42356 35.686 7.33774 35.6845 6.22703C35.681 5.48892 35.5317 4.75877 35.2452 4.07852C34.9587 3.39826 34.5407 2.7813 34.0151 2.26308C33.4878 1.74184 32.863 1.32951 32.1765 1.04962C31.4918 0.773558 30.7599 0.633668 30.0217 0.637784H30.0143ZM30.0143 9.56587C29.3536 9.56099 28.709 9.36147 28.1611 8.99224C27.6158 8.62584 27.1911 8.10644 26.9402 7.49932C26.6922 6.89119 26.6308 6.22302 26.7637 5.57986C26.8953 4.93507 27.2152 4.34382 27.683 3.88102C28.2123 3.36041 28.8991 3.02972 29.6362 2.94058C30.3733 2.85144 31.1191 3.00887 31.7573 3.38828C32.2492 3.68328 32.6565 4.10027 32.94 4.59888C33.2234 5.0975 33.3733 5.66084 33.3752 6.23439C33.3747 6.89468 33.1776 7.53986 32.809 8.08766C32.4997 8.54348 32.083 8.91611 31.5956 9.17264C31.1082 9.42917 30.5651 9.5617 30.0143 9.55852V9.56587Z" fill="#4CC6E1"/>
</svg>
