<svg width="40" height="40" viewBox="0 0 40 40" fill="none" xmlns="http://www.w3.org/2000/svg">
<g clip-path="url(#clip0_1_2665)">
<path d="M31.7746 41H8.22542C3.68251 41 0 37.3175 0 32.7746V9.22542C0 4.68251 3.68251 1 8.22542 1H31.7746C36.3175 1 40 4.68251 40 9.22542V32.7746C40 37.3175 36.3175 41 31.7746 41Z" fill="#F9D836"/>
<path d="M12.2263 33.2217V29.3413C12.2263 29.023 11.9682 28.7734 11.6585 28.7734H7.77805C7.4597 28.7734 7.21021 29.023 7.21021 29.3413V33.2217C7.21021 33.5401 7.4597 33.7896 7.77805 33.7896H11.6585C11.9682 33.7896 12.2263 33.5315 12.2263 33.2217Z" fill="#191D3A"/>
<path d="M32.7898 29.8924V10.757C32.7898 9.33739 31.6541 8.20166 30.2344 8.20166H11.1077C10.7291 8.20166 10.4882 8.33933 10.2559 8.58024L6.41848 12.4176C6.13455 12.7016 6.32384 13.1318 6.74544 13.1318H24.0481L13.3189 23.8609C13.1296 24.0502 13.035 24.2395 13.035 24.5751V27.3972C13.035 27.7241 13.2759 27.9651 13.6029 27.9651H16.4249C16.7519 27.9651 16.9498 27.8704 17.1391 27.6811L27.8683 16.9519V34.2546C27.8683 34.6848 28.2985 34.8741 28.5824 34.5901L32.4198 30.7527C32.6521 30.5032 32.7898 30.2709 32.7898 29.8924Z" fill="#191D3A"/>
</g>
<defs>
<clipPath id="clip0_1_2665">
<rect width="39.9999" height="40" fill="white" transform="translate(0 0.552734)"/>
</clipPath>
</defs>
</svg>
