<?xml version="1.0" encoding="UTF-8"?><svg id="Layer_1" xmlns="http://www.w3.org/2000/svg" viewBox="0 0 424.89 424.89"><defs><style>.cls-1{fill:#be0025;}.cls-1,.cls-2{stroke-width:0px;}.cls-2{fill:#fff;}</style></defs><path class="cls-1" d="M81.49,0h261.9c44.98,0,81.49,36.52,81.49,81.49v261.9c0,44.98-36.52,81.49-81.49,81.49H81.49c-44.98,0-81.49-36.52-81.49-81.49V81.49C0,36.52,36.52,0,81.49,0Z"/><path class="cls-2" d="M91.56,241.28c0-13.33-8.41-20.22-23.27-20.22h-22.01l-8.87,63h15.49l3.14-22.11h6.44l8.33,22.11h16.55l-10.82-24.7c8.77-2.15,15.03-9.4,15.03-18.08ZM65.97,250.23h-8.31l2.41-17.27h7.97c5.09,0,8.06,3.31,8.06,8.32,0,4.66-3.14,8.95-10.12,8.95Z"/><path class="cls-2" d="M206.61,249.77h11.46l2.95-10.2h-12.98l1.7-13.5-15.4,2.15-5.09,36.15c-.27,1.88-.44,3.59-.44,5.19,0,9.93,5.09,15.57,16.91,15.57,2.51,0,5.11-.36,7.7-1.17l2.6-11.28c-2.33.72-4.3.89-6.54.89-4.03,0-5.55-1.7-5.55-4.56,0-1.7.27-3.49.46-4.83l2.23-14.42Z"/><path class="cls-2" d="M243.37,236.81c-5.55,0-10.83,1.08-15.84,2.78l-3.41,11.9c5.64-2.05,11.91-3.4,17.36-3.4,5.92,0,8.41,1.16,8.41,3.58,0,1.97-1.52,2.59-6.35,3.58l-8.06,1.7c-11.72,2.51-16.02,7.61-16.02,15.75s5.64,12.8,14.5,12.8c5.28,0,9.49-1.79,13.06-5.01.09,1.17.18,2.42.37,3.58h13.95c-.09-1.25-.09-1.97-.09-3.04,0-2.42.27-5.73.63-8.15l2.5-17.8c.19-1.34.28-3.05.28-4.21,0-8.95-6.98-14.05-21.3-14.05ZM247.67,271.8c-2.78,2.33-5.37,3.22-8.59,3.22-3.58,0-5.64-1.61-5.64-4.47s1.7-4.92,6.26-5.91l6.63-1.43c.98-.18,1.87-.54,2.69-.89l-1.34,9.48Z"/><path class="cls-2" d="M329.91,236.81c-5.55,0-10.83,1.08-15.84,2.78l-3.41,11.9c5.64-2.05,11.91-3.4,17.36-3.4,5.92,0,8.41,1.16,8.41,3.58,0,1.97-1.52,2.59-6.35,3.58l-8.06,1.7c-11.72,2.51-16.02,7.61-16.02,15.75s5.64,12.8,14.5,12.8c5.28,0,9.49-1.79,13.07-5.01.09,1.17.18,2.42.37,3.58h13.95c-.09-1.25-.09-1.97-.09-3.04,0-2.42.27-5.73.63-8.15l2.5-17.8c.19-1.34.28-3.05.28-4.21,0-8.95-6.98-14.05-21.3-14.05ZM334.2,271.8c-2.78,2.33-5.37,3.22-8.59,3.22-3.58,0-5.64-1.61-5.64-4.47s1.7-4.92,6.26-5.91l6.63-1.43c.98-.18,1.88-.54,2.69-.89l-1.34,9.48Z"/><path class="cls-2" d="M386.27,251.39l3.2-11.08c-1.52-1.25-3.59-1.97-6.27-1.97-3.4,0-8.49,1.69-11.08,5.73l.63-5.83h-12.8l-6.45,45.82h14.41l3.18-24.03c1.74-8.56,7.61-9.87,10.36-9.7,2.19.13,3.39.53,4.82,1.07Z"/><path class="cls-2" d="M136.11,255.6c0-10.38-6.72-18.79-20.49-18.79-16.2,0-24.7,12.89-24.7,27.74,0,11.27,6.7,20.94,24.7,20.94,3.75,0,8.95-.81,13.33-2.86l2.1-1.15,1.51-12.97c-4.75,2.86-10.05,5.44-16.23,5.44-5.22,0-8.98-1.54-10.38-5.49-.26-.72-.34-.63-.43-1.51l29.89-4.36c.26-.99.71-3.22.71-6.99ZM105.95,257.3c1.17-5.28,3.85-9.31,9.67-9.31,4.56,0,6.44,2.86,6.44,6.8l-16.11,2.51Z"/><path class="cls-2" d="M182.49,243.01c-.07-.2-.2-.36-.3-.53-.07-.1-.16-.23-.26-.33,0-.06-.07-.1-.1-.16-2.5-3.28-6.47-5.19-11.59-5.19-5.65,0-9.69,2.33-12.81,6.01l.49-4.57h-13.83l-6.44,45.82h15.04l4.04-28.87c.49-3.61,3.48-6.54,7.16-6.57h.07c3.58,0,5.55,1.97,5.55,4.83,0,1.08-.1,2.23-.2,2.96l-3.84,27.65h14.68l3.84-27.65c.07-.43.13-.82.16-1.18,0,0,1.31-7.13-1.51-11.99-.03-.07-.07-.13-.16-.23Z"/><path class="cls-2" d="M295.73,248.71c3.13,0,6.08.53,8.59,1.7l2.6-11.01c-3.31-1.7-7.6-2.6-13.33-2.6-16.65,0-25.95,12.08-25.95,26.67s9.66,22.02,22.63,22.02c6.82,0,11.35-1.74,11.35-1.74l2.54-13.11-1.45.89c-.85.38-1.7.7-2.54.97-2.51.79-4.93,1.09-6.95,1.09-4.85,0-9.5-2.05-10.59-7.54-.16-.78-.24-1.64-.24-2.57,0-7.25,3.76-14.76,13.33-14.76Z"/><path class="cls-2" d="M76.26,163.32h25.11l-4.74,33.38c-4.92,3.13-13.7,4.56-20.49,4.56-21.76,0-33.11-12.44-33.11-29.81,0-19.24,12.52-36.06,37.41-36.06,9.39,0,16.91,2.06,22.37,5.1l-3.04,11.99c-5.42-2.57-11.8-4.09-19.15-4.12-.06,0-.12,0-.18,0-4.13,0-7.52.8-10.28,2.17-8,3.98-10.67,12.8-10.67,20.91,0,3.54.64,6.65,1.89,9.23,1.61,3.33,4.22,5.78,7.75,7.12,2.04.78,4.38,1.19,7.02,1.19,2.41,0,5.18-.36,7.87-.89l1.88-13.25h-12.97l.1-.4,3.24-11.14Z"/><path class="cls-2" d="M170.58,165.54h11.46l2.95-10.2h-12.98l1.7-13.5-15.4,2.15-5.09,36.15c-.27,1.88-.44,3.59-.44,5.19,0,9.93,5.09,15.57,16.91,15.57,2.51,0,5.11-.36,7.7-1.17l2.6-11.28c-2.33.72-4.3.89-6.54.89-4.03,0-5.55-1.7-5.55-4.56,0-1.7.27-3.49.46-4.83l2.23-14.42Z"/><path class="cls-2" d="M150.38,171.37c0-10.38-6.72-18.79-20.49-18.79-16.19,0-24.7,12.89-24.7,27.74,0,11.27,6.71,20.94,24.7,20.94,3.75,0,8.95-.81,13.33-2.86l2.1-1.15,1.51-12.97c-4.75,2.86-10.05,5.44-16.23,5.44-5.23,0-8.98-1.54-10.38-5.49-.26-.72-.34-.63-.43-1.51l29.89-4.36c.26-.99.71-3.22.71-6.99ZM120.22,173.07c1.17-5.28,3.85-9.31,9.67-9.31,4.56,0,6.44,2.86,6.44,6.8l-16.11,2.51Z"/></svg>