<svg width="40" height="41" viewBox="0 0 40 41" fill="none" xmlns="http://www.w3.org/2000/svg">
<g clip-path="url(#clip0_14164_14831)">
<path d="M30.581 33.2357C27.7039 37.6212 22.7877 40.4424 17.2291 40.4424C8.2905 40.4424 1.05587 33.1519 1 23.4033V17.705C1 7.48149 8.73743 0.470316 19.1564 0.442383C27.4246 0.442383 34.6313 4.63233 36.8101 11.3921L28.8212 14.1854C27.5363 10.6658 23.5698 8.26361 19.1564 8.26361C13.4581 8.26361 9.40782 12.286 9.40782 17.705V23.3753C9.40782 28.9061 13.2067 32.677 17.8994 32.677C22.1173 32.677 25.6089 29.6323 26.3911 25.6658H17.8715V18.2915H38.1508V39.6603H30.581V33.2357Z" fill="#FF5533"/>
</g>
<defs>
<clipPath id="clip0_14164_14831">
<rect width="40" height="40" fill="white" transform="translate(0 0.209961)"/>
</clipPath>
</defs>
</svg>
