<svg width="40" height="41" viewBox="0 0 40 41" fill="none" xmlns="http://www.w3.org/2000/svg">
<g clip-path="url(#clip0_14235_14558)">
<rect y="0.210938" width="40" height="40" rx="8" fill="#132968"/>
<path d="M182.719 14.2009H166.621C166.138 14.2009 165.748 14.5919 165.748 15.0767V69.7847C165.748 70.2852 166.153 70.6606 166.621 70.6606H182.687C183.186 70.6606 183.561 70.2539 183.561 69.7847V15.108C183.561 14.6075 183.186 14.2009 182.687 14.2009H182.719ZM220.622 72.1463C238.997 72.1463 251.803 59.9317 251.803 42.462C251.803 24.9924 238.966 12.762 220.622 12.762C202.622 12.762 189.535 25.2582 189.535 42.4464C189.535 59.6345 202.591 72.1463 220.622 72.1463ZM220.622 28.9492C229.17 28.9492 233.771 35.1582 233.771 42.4464C233.771 49.6094 229.17 55.9435 220.622 55.9435C212.074 55.9435 207.566 49.6094 207.566 42.4464C207.566 35.1739 212.074 28.9492 220.622 28.9492ZM132.913 12.762C127.033 12.7308 121.371 15.0298 117.175 19.1587C116.723 19.6279 115.974 19.6592 115.49 19.2056C115.475 19.19 115.459 19.1744 115.443 19.1587C111.248 14.9985 105.57 12.7151 99.6737 12.7933C84.9022 12.7933 74.1862 23.053 74.1862 37.207V69.816C74.1862 70.3165 74.5918 70.6918 75.0597 70.6918H91.1882C91.6874 70.6918 92.0617 70.2852 92.0617 69.816V37.8952C92.0617 33.7194 94.6666 29.5123 99.6425 29.5123C104.743 29.5123 107.41 33.7194 107.41 37.8952V69.816C107.41 70.3165 107.816 70.6918 108.284 70.6918H124.366C124.865 70.6918 125.239 70.2852 125.239 69.816V37.8952C125.239 33.7194 127.844 29.5123 132.82 29.5123C137.92 29.5123 140.588 33.7194 140.588 37.8952V69.816C140.588 70.3165 140.993 70.6918 141.461 70.6918H157.496C157.995 70.6918 158.37 70.2852 158.37 69.816V37.1758C158.432 23.0217 147.701 12.762 132.882 12.762H132.913ZM38.0608 72.1463C56.0611 72.1463 69.148 59.6501 69.148 42.462C69.148 25.2739 56.0923 12.762 38.0608 12.762C19.6861 12.762 6.87994 24.9767 6.87994 42.4464C6.84874 59.9317 19.6861 72.1463 38.0608 72.1463ZM38.0608 28.9492C46.6086 28.9492 51.1165 35.1582 51.1165 42.4464C51.1165 49.6094 46.6086 55.9435 38.0608 55.9435C29.5129 55.9435 24.9115 49.6094 24.9115 42.4464C24.9115 35.1739 29.5129 28.9492 38.0608 28.9492Z" fill="white"/>
<path d="M9.44722 2.74161C5.65393 2.62463 2.47893 5.60746 2.3536 9.40075C2.34524 9.70154 2.3536 9.99398 2.38702 10.2948C2.75465 14.1298 6.1636 16.9372 9.99867 16.5696C10.007 16.5696 10.007 16.5696 10.0154 16.5696C13.8421 16.2521 16.6912 12.8849 16.3737 9.05819C16.0646 5.46542 13.0483 2.71654 9.44722 2.74161Z" fill="#F96B6B"/>
</g>
<defs>
<clipPath id="clip0_14235_14558">
<rect y="0.210938" width="40" height="40" rx="8" fill="white"/>
</clipPath>
</defs>
</svg>
