<svg width="124" height="124" viewBox="0 0 124 124" fill="none" xmlns="http://www.w3.org/2000/svg">
<path fill-rule="evenodd" clip-rule="evenodd" d="M124 16.12L119.599 77.582H106.398L101.997 16.12H124ZM45.766 16.12C20.2427 16.12 0 36.8958 0 62C0 87.1042 20.2427 107.88 45.766 107.88C71.2894 107.88 92.4122 87.9699 92.4122 62C92.4122 36.0302 72.1696 16.12 45.766 16.12ZM45.766 92.298C29.924 92.298 15.8421 78.4474 15.8421 62C15.8421 46.4181 29.924 32.5675 45.766 32.5675C62.4885 32.5675 75.6901 46.4181 75.6901 62C75.6901 78.4474 62.4885 92.298 45.766 92.298ZM112.997 107.88C118.83 107.88 123.559 103.229 123.559 97.4917C123.559 91.7545 118.83 87.1038 112.997 87.1038C107.164 87.1038 102.435 91.7545 102.435 97.4917C102.435 103.229 107.164 107.88 112.997 107.88Z" fill="#0D41D2"/>
</svg>
