<svg width="40" height="41" viewBox="0 0 40 41" fill="none" xmlns="http://www.w3.org/2000/svg">
<g opacity="0.98" clip-path="url(#clip0_14240_14622)">
<path opacity="0.98" d="M12.125 16.2266L1 24.7608V26.5896L11.5154 21.7129L12.125 16.2266Z" fill="#1D1D1B"/>
<path opacity="0.98" d="M25.6883 27.3516L19.5924 40.0005L17.7637 40.3053L20.5068 29.0279L25.6883 27.3516Z" fill="#1D1D1B"/>
<path opacity="0.98" d="M11.6674 30.7036C11.2102 29.0273 11.0578 17.1403 13.4962 10.892C15.6297 5.40567 20.0493 0.833745 25.3832 0.376553C28.1263 0.0717584 31.3267 0.681347 34.3746 3.2721C37.4226 5.71046 38.337 8.45361 38.6418 11.1968C39.2513 16.5307 35.8986 21.8646 30.8695 25.0649C25.2308 28.7225 12.277 31.0084 11.9722 31.0084C11.8198 31.0084 11.6674 31.0084 11.6674 30.7036Z" fill="#FFD400"/>
<path opacity="0.98" d="M22.3341 8.45447C24.4676 5.86371 28.2776 5.55891 30.8683 7.69248C33.4591 9.82604 33.7639 13.636 31.6303 16.2267C29.4968 18.8175 25.6868 19.1223 23.0961 16.9887C20.5053 15.0076 20.2005 11.0452 22.3341 8.45447Z" fill="#1D1D1B"/>
<path opacity="0.98" d="M24.0108 9.97676C25.3824 8.30039 27.8207 8.14799 29.4971 9.51956C31.1735 10.8911 31.3259 13.3295 29.9543 15.0059C28.5827 16.6822 26.1443 16.8346 24.468 15.4631C22.7916 14.0915 22.6392 11.6531 24.0108 9.97676Z" fill="white"/>
</g>
<defs>
<clipPath id="clip0_14240_14622">
<rect width="40" height="40" fill="white" transform="translate(0 0.228516)"/>
</clipPath>
</defs>
</svg>
