<svg xmlns="http://www.w3.org/2000/svg" xmlns:xhtml="http://www.w3.org/1999/xhtml" xmlns:xlink="http://www.w3.org/1999/xlink" width="174" height="174" fill="none"><defs><path id="f" fill="#fff" d="M0 0h178.393v107.036H0z"/></defs><g clip-path="url(#a)" style="display:inline" transform="translate(0 10.582678)"><g clip-path="url(#b)" style="display:inline"><g clip-path="url(#c)" style="display:inline"><foreignObject width="2044.94" height="2044.94" x="-1022.47" y="-1022.47" transform="matrix(.05613 -.05647 -.05613 -.05647 79.6394 79.8823)"><xhtml:div style="background:conic-gradient(from 90deg,#21a9ff 0deg,#1cc7f6 48.6deg,#19d6f2 75.6deg,#18e0f0 102.6deg,#21a9ff 360deg);height:100%;width:100%;opacity:1"/></foreignObject></g><rect width="159.243" height="159.243" rx="79.621399" style="display:inline" transform="matrix(.705 .70921 .705 -.70921 -32.626 79.8823)"/></g><g clip-path="url(#d)"><g clip-path="url(#e)"><foreignObject width="2044.94" height="2044.94" x="-1022.47" y="-1022.47" transform="matrix(-.05613 .05647 .05613 .05647 94.6106 72.6806)"><xhtml:div style="background:conic-gradient(from 90deg,#00c800 0deg,#00d800 59.4deg,#0f0 172.8deg,#00c800 360deg);height:100%;width:100%;opacity:1"/></foreignObject></g><rect width="159.243" height="159.243" rx="79.621399" transform="matrix(-.705 -.70921 -.705 .70921 206.876 72.6807)"/></g></g><defs><clipPath id="c"><rect width="159.243" height="159.243" rx="79.6214" transform="matrix(.705 .70921 .705 -.70921 -32.626 79.8823)"/></clipPath><clipPath id="e"><rect width="159.243" height="159.243" rx="79.6214" transform="matrix(-.705 -.70921 -.705 .70921 206.876 72.6807)"/></clipPath><clipPath id="a"><path fill="#fff" d="M0 0h173.992v153.02H0z"/></clipPath><clipPath id="b"><use xlink:href="#f" transform="matrix(.705 -.70921 .705 .70921 -60.5869 64.7242)"/></clipPath><clipPath id="d"><use xlink:href="#f" transform="matrix(-.705 .70921 -.705 -.70921 234.626 87.9081)"/></clipPath></defs></svg>