<svg width="40" height="41" viewBox="0 0 40 41" fill="none" xmlns="http://www.w3.org/2000/svg">
<g clip-path="url(#clip0_14241_15347)">
<path d="M27.2257 7.33263C26.5472 4.06429 23.0306 1.9709 18.968 2.21913C14.897 2.46736 11.6949 5.05721 11.4467 8.38346L4.72795 8.80545C2.1381 8.80545 -0.0214844 10.965 -0.0214844 13.5549V33.4048C-0.0214844 36.0526 2.1381 38.1543 4.72795 38.1543H35.1773C37.825 38.1543 39.9267 35.9947 39.9267 33.4048V7.0844C39.9267 6.77825 39.6785 6.4721 39.3144 6.53002L27.2257 7.33263ZM19.0259 3.56784C22.1701 3.3858 24.8841 5.04893 25.5626 7.44847L13.0436 8.31727C13.358 5.85154 15.8817 3.81607 19.0259 3.56784ZM11.1322 28.9616H9.4691C8.11212 28.9616 7.2516 28.5313 6.75514 27.7287C6.44899 27.1743 6.25869 26.3138 6.25869 25.263V18.9745H3.85915V17.8658H6.26696V14.9698H7.37571V17.8658H10.0897V18.9166H7.37571V25.205C7.37571 25.7015 7.37571 26.1318 7.43363 26.3138C7.43363 26.562 7.55775 26.8103 7.73978 27.0502C7.92181 27.2984 8.11212 27.4805 8.41827 27.6046C8.72442 27.7287 9.03057 27.7287 9.4691 27.7287H11.1322V28.8375V28.9616ZM17.8509 18.9166H16.8663C16.6181 18.9166 16.3698 18.9745 16.0637 19.0407C15.8155 19.0986 15.5672 19.2228 15.3273 19.2889C14.715 19.5951 14.2765 20.1495 13.9703 21.0183C13.7883 21.5726 13.7221 22.3091 13.7221 23.0537V28.9119H12.6133V17.8079H13.7221V19.4131C13.78 19.2889 13.8462 19.231 13.9041 19.1648C14.1523 18.8587 14.4585 18.6105 14.8308 18.3622C15.4431 18.0561 16.1216 17.8658 16.8001 17.8658H17.9089L17.8509 18.9166ZM20.9952 28.9616H19.8864V17.874H20.9952V28.9616ZM20.4408 15.2842C19.9443 15.2842 19.6382 14.9781 19.6382 14.4816C19.6382 13.9851 19.9443 13.679 20.4408 13.679C20.9372 13.679 21.2434 13.9851 21.2434 14.4816C21.3096 15.036 20.9372 15.2842 20.4408 15.2842ZM34.8628 26.4379C34.3664 27.2984 33.63 28.0431 32.7694 28.4734C32.3392 28.7216 31.9089 28.8457 31.3545 28.9036C30.8581 28.9616 30.3699 29.0278 29.6914 29.0278C29.0129 29.0278 28.3344 28.9036 27.7801 28.7216C27.2257 28.4734 26.6713 28.1672 26.0507 27.6129L25.9928 27.5549V26.1897L26.241 26.3717C26.8533 26.9261 27.4739 27.2984 28.0283 27.6046C28.5827 27.9107 29.137 27.9769 29.8155 27.9769C30.8002 27.9769 31.7269 27.7949 32.4054 27.3646C33.0177 27.0585 33.4562 26.562 33.8865 25.8256C34.0685 25.5195 34.2588 25.0892 34.3167 24.5928C34.4408 24.1625 34.4408 23.7322 34.4408 23.2358C34.4408 22.8634 34.3829 22.4332 34.2588 22.0029C34.1347 21.6306 34.0106 21.2665 33.7624 20.8942C33.39 20.3398 33.0259 19.8433 32.4716 19.4793C31.7352 18.9249 30.7422 18.6187 29.6997 18.6187C28.9633 18.6187 28.2186 18.8008 27.6063 19.1152C27.1098 19.3634 26.6796 19.7275 26.2493 20.2239C25.8191 20.7783 25.5708 21.5147 25.3888 22.3173C25.2647 22.8138 25.2647 23.5502 25.2647 24.2866V33.8434H24.1394V24.2783C24.1394 23.2937 24.1973 22.4911 24.3214 21.9367C24.5034 21.01 24.8758 20.1495 25.4302 19.471C25.8604 18.9166 26.3569 18.4863 26.9692 18.1802C27.7056 17.7499 28.6323 17.5679 29.6169 17.5679C30.6016 17.5679 31.5283 17.7499 32.3888 18.1802C33.1914 18.6105 33.994 19.231 34.5484 20.1495C35.1607 21.0762 35.4751 22.1849 35.4751 23.2275C35.6654 24.4686 35.4255 25.5112 34.8628 26.4379Z" fill="#B756BD"/>
</g>
<defs>
<clipPath id="clip0_14241_15347">
<rect width="40" height="40" fill="white" transform="translate(0 0.228516)"/>
</clipPath>
</defs>
</svg>
