<svg width="1000" height="1000" viewBox="0 0 1000 1000" fill="none" xmlns="http://www.w3.org/2000/svg">
<ellipse cx="499.761" cy="500" rx="499.761" ry="500" transform="matrix(1 0 0.000478414 1 0 0)" fill="#91F886"/>
<path d="M264.371 625.452C263.059 638.961 263.047 653.7 264.002 668.9C270.833 777.593 368.915 821.702 467.413 775.238C489.827 764.663 549.423 731.13 571.328 719.227C621.203 692.124 694.718 653.404 769.605 622.707C803.695 608.732 811.632 577.814 810.029 556.916C808.448 537.4 800 517.553 785.502 504.481C773.747 493.88 759.165 490.55 744.106 491.803C707.679 494.842 688.914 529.623 671.176 545.875C608.22 595.465 564.619 515.403 610.29 449.549C614.694 443.198 618.473 437.653 621.203 433.282C627.05 423.915 638.976 409.953 646.516 402.215C673.183 374.846 700.972 342.761 705.033 307.852C709.861 266.347 671.278 226.548 629.557 228.863C613.429 229.758 597.437 235.895 584.924 249.008C564.117 270.807 555.551 290.117 542.039 324.8L542.037 324.805C530.197 355.198 507.658 413.051 483.961 439.336C446.518 480.868 403.726 482.674 391.109 423.084C378.491 363.495 438.45 327.38 391.109 273.622C382.596 263.955 372.252 259.073 356.598 258.782C340.943 258.491 326.464 259.274 306.766 279.126C287.068 298.978 287.743 337.594 291.551 361.362C295.359 385.129 294.551 391.068 293.303 405.947C290.677 436.455 283.798 473.33 279.107 503.993C273.195 544.346 268.284 584.846 264.371 625.452Z" fill="#004421"/>
</svg>
