<svg width="40" height="40" viewBox="0 0 40 40" fill="none" xmlns="http://www.w3.org/2000/svg">
<g clip-path="url(#clip0_1_3085)">
<mask id="mask0_1_3085" style="mask-type:luminance" maskUnits="userSpaceOnUse" x="0" y="0" width="40" height="40">
<path d="M40 0H0V40H40V0Z" fill="white"/>
</mask>
<g mask="url(#mask0_1_3085)">
<mask id="mask1_1_3085" style="mask-type:luminance" maskUnits="userSpaceOnUse" x="0" y="0" width="40" height="40">
<path d="M39.999 20C39.999 8.952 31.043 0 20 0C8.957 0 0 8.957 0 20C0 31.043 8.952 40 20 40C31.048 40 40 31.043 40 20H39.999Z" fill="white"/>
</mask>
<g mask="url(#mask1_1_3085)">
<path d="M39.9995 20C39.9995 8.952 31.0435 0 20.0005 0C8.95749 0 0.000488281 8.957 0.000488281 20C0.000488281 31.043 8.95249 40 20.0005 40C31.0485 40 40.0005 31.043 40.0005 20H39.9995Z" fill="#7F5FFF"/>
<path d="M40.4965 10.4867C37.2279 6.17139 28.4942 1.10306 20.5557 2.77848C18.4366 3.22614 18.687 4.26863 18.0391 5.25607C17.1407 6.62507 14.4699 7.18787 14.2756 7.81879C14.0002 8.72611 15.3161 10.2814 16.0682 10.5618C17.2669 11.0034 18.3135 9.05159 19.8036 8.81123C21.2827 8.57087 26.7847 9.07363 27.7021 10.5317C29.0671 12.0509 28.9108 14.5085 28.0936 14.85C27.2164 15.2165 25.1904 13.1846 23.8004 13.3408C23.0183 13.4309 21.4931 14.4344 20.5908 14.3292C19.8136 14.2391 19.3069 12.5787 18.6299 12.093C18.013 11.6514 14.5229 12.4135 13.6247 12.82C12.5311 13.3118 10.0495 16.8269 9.98339 18.0907C9.90327 19.5598 12.8966 22.5241 14.1053 22.7595C15.3742 23.0048 17.6205 21.8472 18.4136 22.3929C19.361 23.0499 20.3995 34.183 22.4705 34.198C23.7844 34.2081 27.3746 29.304 27.9364 28.3506C28.7236 27.0066 28.2419 24.8655 28.5183 24.1284C28.8638 23.2061 31.0459 21.9923 31.131 21.0139C31.2111 20.1367 28.2729 17.614 29 17.0922C29.5768 16.6806 32.6763 18.1658 33.6838 17.5439C34.544 17.0131 34.576 14.3402 35.6806 12.3354C35.8899 11.9548 36.2895 11.7134 36.7241 11.7134C37.7667 11.7134 38.9174 12.4094 40.1753 17.5118C40.4457 18.5303 42.2521 16.1869 42.2521 16.1869L40.4957 10.4887L40.4965 10.4867Z" fill="#FEE14A"/>
<path d="M31.2817 27.2862C30.6798 27.131 29.9828 28.6853 29.7825 29.2721C29.6023 29.8139 29.2458 31.3581 29.7825 31.5534C30.4345 31.7888 31.3468 30.0843 31.5431 29.4223C31.6933 28.9056 31.8035 27.4214 31.2827 27.2913" fill="#FEE14A"/>
<path d="M0.124566 22.2461C1.01185 24.9691 4.48287 24.1569 5.08475 25.9775C5.76175 28.0285 3.43436 29.9843 4.87947 33.0938C1.90014 36.0171 -1.42969 28.5292 -1.42969 28.5292L0.124566 22.2501V22.2451V22.2461Z" fill="#FEE14A"/>
</g>
</g>
</g>
<defs>
<clipPath id="clip0_1_3085">
<rect width="40" height="40" fill="white"/>
</clipPath>
</defs>
</svg>
