<svg width="40" height="40" viewBox="0 0 40 41" fill="none" xmlns="http://www.w3.org/2000/svg">
<g clip-path="url(#clip0_1566_1877)">
<g clip-path="url(#clip1_1566_1877)">
<mask id="mask0_1566_1877" style="mask-type:luminance" maskUnits="userSpaceOnUse" x="0" y="0" width="40" height="41">
<path d="M40 0.585938H0V40.5859H40V0.585938Z" fill="white"/>
</mask>
<g mask="url(#mask0_1566_1877)">
<path d="M20 40.5859C31.0457 40.5859 40 31.6316 40 20.5859C40 9.54024 31.0457 0.585938 20 0.585938C8.95431 0.585938 0 9.54024 0 20.5859C0 31.6316 8.95431 40.5859 20 40.5859Z" fill="#FF9900"/>
<path d="M20 40.5859C31.0457 40.5859 40 31.6316 40 20.5859C40 9.54024 31.0457 0.585938 20 0.585938C8.95431 0.585938 0 9.54024 0 20.5859C0 31.6316 8.95431 40.5859 20 40.5859Z" fill="url(#paint0_linear_1566_1877)"/>
<path d="M9.33325 20.7566C9.33325 20.2251 9.33325 19.9592 9.43833 19.757C9.52688 19.5866 9.66588 19.4475 9.83635 19.359C10.0386 19.2539 10.3044 19.2539 10.8359 19.2539H11.8306C12.3621 19.2539 12.6279 19.2539 12.8302 19.359C13.0006 19.4475 13.1396 19.5866 13.2282 19.757C13.3333 19.9592 13.3333 20.2251 13.3333 20.7566V24.4179C13.3333 24.9494 13.3333 25.2152 13.2282 25.4175C13.1396 25.5879 13.0006 25.727 12.8302 25.8155C12.6279 25.9206 12.3621 25.9206 11.8306 25.9206H10.8359C10.3044 25.9206 10.0386 25.9206 9.83635 25.8155C9.66588 25.727 9.52688 25.5879 9.43833 25.4175C9.33325 25.2152 9.33325 24.9494 9.33325 24.4179V20.7566Z" fill="white"/>
<path d="M9.33325 28.7566C9.33325 28.2251 9.33325 27.9592 9.43833 27.757C9.52688 27.5866 9.66588 27.4475 9.83635 27.359C10.0386 27.2539 10.3044 27.2539 10.8359 27.2539H11.8306C12.3621 27.2539 12.6279 27.2539 12.8302 27.359C13.0006 27.4475 13.1396 27.5866 13.2282 27.757C13.3333 27.9592 13.3333 28.2251 13.3333 28.7566V29.7512C13.3333 30.2827 13.3333 30.5486 13.2282 30.7508C13.1396 30.9212 13.0006 31.0603 12.8302 31.1488C12.6279 31.2539 12.3621 31.2539 11.8306 31.2539H10.8359C10.3044 31.2539 10.0386 31.2539 9.83635 31.1488C9.66588 31.0603 9.52688 30.9212 9.43833 30.7508C9.33325 30.5486 9.33325 30.2827 9.33325 29.7512V28.7566Z" fill="white"/>
<path d="M14.6667 16.7566C14.6667 16.2251 14.6667 15.9592 14.7718 15.757C14.8603 15.5866 14.9994 15.4475 15.1698 15.359C15.3721 15.2539 15.6379 15.2539 16.1694 15.2539H17.1641C17.6955 15.2539 17.9614 15.2539 18.1637 15.359C18.3341 15.4475 18.4731 15.5866 18.5617 15.757C18.6667 15.9592 18.6667 16.2251 18.6667 16.7566V24.4179C18.6667 24.9494 18.6667 25.2152 18.5617 25.4175C18.4731 25.5879 18.3341 25.727 18.1637 25.8155C17.9614 25.9206 17.6955 25.9206 17.1641 25.9206H16.1694C15.6379 25.9206 15.3721 25.9206 15.1698 25.8155C14.9994 25.727 14.8603 25.5879 14.7718 25.4175C14.6667 25.2152 14.6667 24.9494 14.6667 24.4179V16.7566Z" fill="white"/>
<path d="M14.6667 28.7566C14.6667 28.2251 14.6667 27.9592 14.7718 27.757C14.8603 27.5866 14.9994 27.4475 15.1698 27.359C15.3721 27.2539 15.6379 27.2539 16.1694 27.2539H17.1641C17.6955 27.2539 17.9614 27.2539 18.1637 27.359C18.3341 27.4475 18.4731 27.5866 18.5617 27.757C18.6667 27.9592 18.6667 28.2251 18.6667 28.7566V29.7512C18.6667 30.2827 18.6667 30.5486 18.5617 30.7508C18.4731 30.9212 18.3341 31.0603 18.1637 31.1488C17.9614 31.2539 17.6955 31.2539 17.1641 31.2539H16.1694C15.6379 31.2539 15.3721 31.2539 15.1698 31.1488C14.9994 31.0603 14.8603 30.9212 14.7718 30.7508C14.6667 30.5486 14.6667 30.2827 14.6667 29.7512V28.7566Z" fill="white"/>
<path d="M20 12.7566C20 12.2251 20 11.9593 20.1051 11.757C20.1936 11.5865 20.3327 11.4475 20.5031 11.359C20.7053 11.2539 20.9712 11.2539 21.5027 11.2539H22.4973C23.0288 11.2539 23.2947 11.2539 23.4969 11.359C23.6673 11.4475 23.8064 11.5865 23.8949 11.757C24 11.9593 24 12.2251 24 12.7566V24.4179C24 24.9494 24 25.2152 23.8949 25.4175C23.8064 25.5879 23.6673 25.727 23.4969 25.8155C23.2947 25.9206 23.0288 25.9206 22.4973 25.9206H21.5027C20.9712 25.9206 20.7053 25.9206 20.5031 25.8155C20.3327 25.727 20.1936 25.5879 20.1051 25.4175C20 25.2152 20 24.9494 20 24.4179V12.7566Z" fill="white"/>
<path d="M20 28.7566C20 28.2251 20 27.9592 20.1051 27.757C20.1936 27.5866 20.3327 27.4475 20.5031 27.359C20.7053 27.2539 20.9712 27.2539 21.5027 27.2539H22.4973C23.0288 27.2539 23.2947 27.2539 23.4969 27.359C23.6673 27.4475 23.8064 27.5866 23.8949 27.757C24 27.9592 24 28.2251 24 28.7566V29.7512C24 30.2827 24 30.5486 23.8949 30.7508C23.8064 30.9212 23.6673 31.0603 23.4969 31.1488C23.2947 31.2539 23.0288 31.2539 22.4973 31.2539H21.5027C20.9712 31.2539 20.7053 31.2539 20.5031 31.1488C20.3327 31.0603 20.1936 30.9212 20.1051 30.7508C20 30.5486 20 30.2827 20 29.7512V28.7566Z" fill="white"/>
<path opacity="0.5" d="M25.3333 10.0886C25.3333 9.55708 25.3333 9.29131 25.4383 9.08903C25.5269 8.91856 25.6659 8.77956 25.8363 8.69102C26.0386 8.58594 26.3045 8.58594 26.8359 8.58594H27.8306C28.3621 8.58594 28.6279 8.58594 28.8302 8.69102C29.0006 8.77956 29.1397 8.91856 29.2282 9.08903C29.3333 9.29131 29.3333 9.55708 29.3333 10.0886V24.4166C29.3333 24.9481 29.3333 25.2139 29.2282 25.4162C29.1397 25.5866 29.0006 25.7257 28.8302 25.8142C28.6279 25.9193 28.3621 25.9193 27.8306 25.9193H26.8359C26.3045 25.9193 26.0386 25.9193 25.8363 25.8142C25.6659 25.7257 25.5269 25.5866 25.4383 25.4162C25.3333 25.2139 25.3333 24.9481 25.3333 24.4166V10.0886Z" fill="white"/>
<path d="M25.3333 28.7566C25.3333 28.2251 25.3333 27.9592 25.4383 27.757C25.5269 27.5866 25.6659 27.4475 25.8363 27.359C26.0386 27.2539 26.3045 27.2539 26.8359 27.2539H27.8306C28.3621 27.2539 28.6279 27.2539 28.8302 27.359C29.0006 27.4475 29.1397 27.5866 29.2282 27.757C29.3333 27.9592 29.3333 28.2251 29.3333 28.7566V29.7512C29.3333 30.2827 29.3333 30.5486 29.2282 30.7508C29.1397 30.9212 29.0006 31.0603 28.8302 31.1488C28.6279 31.2539 28.3621 31.2539 27.8306 31.2539H26.8359C26.3045 31.2539 26.0386 31.2539 25.8363 31.1488C25.6659 31.0603 25.5269 30.9212 25.4383 30.7508C25.3333 30.5486 25.3333 30.2827 25.3333 29.7512V28.7566Z" fill="white"/>
</g>
</g>
</g>
<defs>
<linearGradient id="paint0_linear_1566_1877" x1="20" y1="0.585938" x2="20" y2="40.5859" gradientUnits="userSpaceOnUse">
<stop stop-color="white" stop-opacity="0.2"/>
<stop offset="1" stop-color="white" stop-opacity="0"/>
</linearGradient>
<clipPath id="clip0_1566_1877">
<rect width="40" height="40" fill="white" transform="translate(0 0.585938)"/>
</clipPath>
<clipPath id="clip1_1566_1877">
<rect width="40" height="40" fill="white" transform="translate(0 0.585938)"/>
</clipPath>
</defs>
</svg>
