<svg width="341" height="341" viewBox="0 0 341 341" fill="none" xmlns="http://www.w3.org/2000/svg">
<path d="M33.9515 -0.266535C40.7142 -0.445139 48.1271 -0.302259 54.9281 -0.303644L94.514 -0.309503L214.845 -0.305597L278.868 -0.306574L298.193 -0.318292C310.201 -0.32163 319.364 -0.684415 329.217 7.74225C343.125 19.635 341.19 34.942 341.176 51.3067L341.157 86.3829L341.184 195.125L341.181 272.228L341.212 295.303C341.226 308.706 342.006 318.931 332.398 329.72C326.281 336.547 317.675 340.628 308.52 341.05C298.456 341.533 284.325 341.086 274.023 341.083L205.381 341.092L162.115 341.117C141.323 341.131 123.861 343.106 107.208 327.72C102.838 323.62 99.3189 318.699 96.8548 313.236C94.3907 307.774 93.0296 301.878 92.849 295.889C92.529 287.072 93.8616 280.992 96.6224 272.786C101.665 257.797 109.31 248.589 119.725 237.345C125.95 245.136 131.667 253.986 137.971 261.606C140.39 264.528 150.129 252.175 148.683 246.961C146.168 237.892 141.381 229.908 138.15 221.158C142.842 216.992 148.474 212.5 153.326 208.398C163.06 200.169 172.732 191.869 182.345 183.5C189.212 190.011 196.381 197.442 203.098 204.167L248.907 249.981C253.187 244.922 256.537 238.164 256.598 231.434C256.623 228.623 256.007 225.923 254.626 223.456C251.646 218.12 237.029 204.664 231.868 199.467C223.676 191.542 215.284 182.914 207.203 174.842L155.649 123.287L134.288 101.945C132.743 100.406 131.158 98.7783 129.626 97.3106C123.616 91.552 120.034 86.1564 110.778 87.3673C103.826 88.2767 99.8349 91.3194 94.4329 95.3995C110.556 111.824 126.807 128.124 143.183 144.297C148.913 150.046 155.228 156.051 160.75 161.915C157.391 166.37 151.717 172.659 147.998 177.059C139.745 186.812 131.56 196.623 123.442 206.489C118.102 204.22 112.747 201.983 107.379 199.78C101.261 197.23 96.1995 193.797 89.9368 198.428C79.7224 205.983 80.7549 205.52 89.9857 212.164C94.9362 215.725 102.289 220.689 106.734 224.759C102.849 229.003 98.6343 233.317 95.2406 237.848C77.4842 261.564 66.952 294.342 80.972 322.417C84.8667 330.214 88.4217 334.775 94.4671 341.075C74.9177 341.309 55.209 340.956 35.6429 341.125C25.3518 341.214 16.7477 338.183 9.43489 330.636C5.18338 326.252 2.08164 320.872 0.502648 314.997C-0.502379 311.257 -0.0905428 305.978 -0.0892082 302.073L-0.0824493 281.846L-0.110001 220.064L-0.10925 145.045L-0.0915948 87.5814L-0.0732617 56.9412C-0.0633266 46.1099 -0.892389 33.0586 1.34953 22.5251C2.93005 15.0973 6.79604 9.41358 12.611 4.49957C18.5298 -0.502856 26.2999 -0.0644929 33.9515 -0.266535Z" fill="#2167e2"></path>
</svg>